<?xml version="1.0" encoding="utf-8"?>
<!-- Generator: Adobe Illustrator 24.1.2, SVG Export Plug-In . SVG Version: 6.00 Build 0)  -->
<svg version="1.1" id="Слой_1" xmlns="http://www.w3.org/2000/svg" xmlns:xlink="http://www.w3.org/1999/xlink" x="0px" y="0px"
	 viewBox="0 0 800 400" style="enable-background:new 0 0 800 400;" xml:space="preserve">
<style type="text/css">
	.st0{fill:#FEFEFE;}
	.st1{fill:#EEB2B0;}
	.st2{fill:#EEB3B1;}
	.st3{fill:#EFB3B1;}
	.st4{fill:#F5D2D1;}
	.st5{fill:#F4CCCB;}
</style>
<g>
	<path class="st0" d="M400,399.9c-132,0-264,0-396.1,0.1c-3.2,0-3.9-0.8-3.9-4.1C0.1,265.3,0.1,134.7,0,4.1C0,0.8,0.7,0,3.9,0
		C268,0.1,532,0.1,796.1,0c3.2,0,3.9,0.8,3.9,4.1c-0.1,130.6-0.1,261.2,0,391.7c0,3.4-0.7,4.1-3.9,4.1
		C664,399.9,532,399.9,400,399.9z M732.3,296.6c0,0.1,0.1,0.2,0.1,0.3c0,0.1,0.1,0.1,0.2,0.1C732.5,296.8,732.4,296.7,732.3,296.6
		c-0.4-0.7-1-0.9-1.7-0.9c-0.9-3.2-3.2-5-5.9-6.4c-5.1-5.1-9.9-10.7-15.5-15.2c-13.2-10.8-26.5-21.6-40.9-30.7
		c-16.8-10.6-34.1-20.2-52-28.7c-16.4-7.8-33.5-14-50.5-20c-15.2-5.3-30.7-9.4-46.4-12.8c-13.3-3-26.7-5.7-40.2-7.3
		c-10.9-1.3-21.7-2.4-32.6-3.8c-7-0.9-13.9-0.7-20.8-1.2c-9.8-0.8-19.7-0.4-29.5-0.5c-1.3,0-2.2,0.4-2,2.1
		c1.2,9.2,0.5,18.5-0.3,27.7c-0.2,2,0.1,2.6,2.1,2.6c20.6,0.1,41.3,0.7,61.8,2.7c16.7,1.6,33.3,3.3,49.9,6
		c21.3,3.5,42.5,7.7,63.3,13.4c19.8,5.4,39.3,11.7,58.5,19.1c21.2,8.2,41.7,18.2,61.9,28.9c10.8,5.7,20.9,12.7,31.4,18.9
		c2.3,2.3,4.9,4,7.7,5.4C730.9,296.5,731.6,296.6,732.3,296.6z M63.4,296.6c0.7,0,1.4-0.1,1.8-0.8c2.7-0.8,5-2.3,6.8-4.6
		c0.5-0.2,1.1-0.2,1.6-0.5c12.5-8.5,25.3-16.3,38.8-23.1c18.6-9.2,37.2-18.5,56.6-25.7c27-10.1,54.5-18.5,82.5-24.8
		c19.3-4.3,38.7-7.7,58.2-10.3c2.2-0.3,2.9-1.1,2.9-3.3c-0.1-8.4-0.1-16.8,0-25.1c0-2.4-0.9-3.3-3.1-2.9c-5.7,1-11.5,1.8-17.2,3
		c-11.6,2.5-23.2,5.3-34.8,8.3c-21.7,5.6-42.7,13.3-63.5,21.8c-18.4,7.5-36,17-53.2,27.2c-13.4,7.9-26.1,16.9-38.7,26.1
		c-11.2,8.1-21.8,17-31.1,27.5c-2.8,1.2-4.9,3.2-6,6.3C64.4,295.6,63.8,295.9,63.4,296.6c-0.1,0.1-0.2,0.1-0.3,0.2
		c0,0,0,0.2-0.1,0.2C63.2,296.8,63.3,296.7,63.4,296.6z M217.1,301.2c6.3,0,12.6,0,18.8,0c14.4-0.1,28.7,0.3,43-1.9
		c17-2.6,33.3-7.4,48.6-15.4c27.6-14.3,45.5-37.4,53.2-68.5c5-20.1,6-40.6,0.2-61c-4.4-15.4-11.6-29.2-22.3-40.7
		c-17.7-19-40.5-26.4-64.6-29.9c-13.2-1.9-26.7-2-40.1-1.9c-26,0-51.9,0-77.9,0c-7.3,0-7,0-7.4,7.5c-0.2,4.6,1.2,5.8,5.5,5.9
		c9.2,0.1,15.7,5.6,16.7,14c1,7.8,1.8,15.7,1.8,23.6c-0.1,19.8,0,39.5,0,59.3c0,5,0.2,5.2,4.7,3.3c1.7-0.7,3.4-1.6,5.1-2.3
		c13.5-5.1,27-9.9,40.8-13.9c3-0.9,3.3-2.4,3.3-5.1c-0.1-9.3-0.1-18.6,0-27.8c0-12.9,0-25.7,0.1-38.6c0-6.4,2.3-8.8,8.4-9
		c3-0.1,6,0,9,0c19.2-0.1,33.9,9.1,44.6,25.1c8.5,12.6,13.3,27,15.4,42.5c2.5,18.9,2.3,37.7-1.1,56.5c-1.4,7.8-4.7,14.9-7.6,22.1
		c-8.3,20.7-21.4,35.6-43.9,38.9c-12.9,1.9-22.9-6.2-24.1-19c-0.9-9.4-0.7-18.8-0.8-28.2c-0.1-6.8-0.1-7.1-6.4-5.6
		c-14.6,3.7-29.2,7.4-43.5,12.3c-3,1-4.2,2.6-4,6.1c0.5,7.9-0.7,15.8-1.6,23.6c-0.8,7.3-5.7,12.4-12.6,13.8c-2,0.4-3.9,0.8-5.8,1.2
		c-6.3,1.3-6.1,1.3-6.3,8.2c-0.1,3.8,0.8,5.2,4.7,5.1C186.3,301,201.7,301.2,217.1,301.2z M579.8,82c-15.7,0-31.4,0-47.1,0
		c-1.4,0-3.5-0.7-3.9,0.9c-0.9,3.6-1,7.6,0,11.1c0.7,2.6,3.8,1.2,5.7,1.3c8.8,0.5,14.4,4.9,15.9,13.3c0.7,3.9,1.3,7.9,1.3,12
		c-0.1,18,0.1,35.9-0.1,53.9c-0.1,4.1,1.4,5.7,4.8,6.3c1,0.2,2,0.3,2.9,0.6c14.5,4.7,28.9,9.6,42.9,15.8c3.6,1.6,4.1,1,4.1-2.9
		c-0.1-21.5-0.1-43.1,0-64.6c0-6.4,0.1-12.8,1.2-19.2c1.9-11.1,8.5-13.8,16.5-15c7.2-1.1,7.2-0.8,7.2-8.3c0-0.3,0-0.6,0-0.9
		c0.5-3.3-0.8-4.4-4-4.3C611.4,82.1,595.6,82,579.8,82z M456.4,301.2c15.7,0,31.4-0.1,47,0.1c3.2,0,4.6-0.7,4.5-4.4
		c-0.2-7.8,0-7.8-7.4-9.2c-1.5-0.3-3.1-0.5-4.6-1c-4.1-1.4-7.6-3.6-9-8.1c-1.1-3.7-2.3-7.3-2.3-11.3c0.1-15.2-1.3-30.5-0.6-45.7
		c0.1-3.5-1.6-4.6-4.2-4.7c-14.9-1-29.6-3-44.5-3.8c-4.6-0.2-5.4,1.3-5.3,5.7c0.2,15.4,0.7,30.8-0.2,46.2
		c-0.8,13.9-2.9,21.1-18.3,23c-6.3,0.8-5.9,1.1-6.4,7.9c-0.3,4.8,1.4,5.6,5.6,5.6C425.9,301,441.2,301.2,456.4,301.2z M455.5,82
		c-15.3,0-30.5,0-45.8,0c-5.5,0-5.5,0-5.5,5.9c0,7,0,6.8,6.6,7.5c7.3,0.8,14.4,2.6,17,11.1c1.3,4.2,2.1,8.6,2.1,13.2
		c0,11.4,0.2,22.7,0,34.1c-0.1,3.7,1.2,5.2,4.5,5.3c15.3,0.7,30.5,2.5,45.7,4.7c3.6,0.5,4-0.6,3.9-3.8c-0.6-15.1,0.1-30.2,0.9-45.2
		c0.7-13.6,4.4-16.7,14.6-19.3c2.1-0.5,5.1,1.1,6.3-1.3c0.9-1.9,0.4-4.7,0.4-7.1c0-0.3,0-0.6,0-0.9c0.5-3.4-1-4.3-4.1-4.2
		C486.6,82.1,471,82,455.5,82z M578.5,301.2c14.7,0,29.4,0,44.1,0c9.4,0,9.3,0,8.7-9.7c-0.1-2.1-0.8-2.8-2.8-3
		c-3.1-0.3-6.2-0.9-9.2-1.7c-6.2-1.6-9.7-5.8-11.3-12.4c-2-8.3-1.4-16.6-1.6-24.9c0-2,0.1-3.9-2.3-4.7c-15.9-5.3-32.1-9.6-48.4-13.8
		c-3.5-0.9-4,0.1-4,3.5c-0.2,12.1,0.9,24.2-0.8,36.3c-1.6,11.8-5.7,16.1-17,17.1c-8,0.7-7.8,0.7-8,8.9c-0.1,3.9,1.3,4.7,4.7,4.6
		C546.5,301.1,562.5,301.2,578.5,301.2z"/>
	<path class="st1" d="M217.1,301.2c-15.4,0-30.8-0.1-46.2,0.1c-3.9,0.1-4.8-1.3-4.7-5.1c0.3-6.9,0.1-6.9,6.3-8.2
		c1.9-0.4,3.9-0.8,5.8-1.2c7-1.3,11.8-6.5,12.6-13.8c0.9-7.8,2.1-15.7,1.6-23.6c-0.2-3.5,1-5,4-6.1c14.3-4.8,28.9-8.6,43.5-12.3
		c6.3-1.6,6.3-1.2,6.4,5.6c0.1,9.4-0.1,18.8,0.8,28.2c1.2,12.8,11.2,20.9,24.1,19c22.5-3.3,35.6-18.2,43.9-38.9
		c2.9-7.2,6.2-14.3,7.6-22.1c3.4-18.8,3.5-37.6,1.1-56.5c-2-15.5-6.9-29.8-15.4-42.5c-10.7-16-25.4-25.2-44.6-25.1c-3,0-6-0.1-9,0
		c-6.1,0.2-8.4,2.6-8.4,9c-0.1,12.9-0.1,25.7-0.1,38.6c0,9.3-0.1,18.6,0,27.8c0,2.7-0.3,4.2-3.3,5.1c-13.8,4-27.4,8.8-40.8,13.9
		c-1.7,0.7-3.4,1.6-5.1,2.3c-4.5,1.9-4.7,1.8-4.7-3.3c0-19.8-0.1-39.5,0-59.3c0-7.9-0.8-15.8-1.8-23.6c-1-8.4-7.5-13.9-16.7-14
		c-4.3-0.1-5.7-1.3-5.5-5.9c0.3-7.5,0.1-7.5,7.4-7.5c26,0,51.9,0,77.9,0c13.4,0,26.8,0.1,40.1,1.9c24.1,3.4,47,10.9,64.6,29.9
		c10.7,11.5,18,25.3,22.3,40.7c5.7,20.3,4.8,40.8-0.2,61c-7.7,31.1-25.6,54.2-53.2,68.5c-15.4,7.9-31.7,12.8-48.6,15.4
		c-14.3,2.2-28.7,1.8-43,1.9C229.7,301.2,223.4,301.2,217.1,301.2z"/>
	<path class="st2" d="M722.8,290.3c-10.5-6.2-20.6-13.2-31.4-18.9c-20.2-10.7-40.6-20.8-61.9-28.9c-19.2-7.4-38.7-13.7-58.5-19.1
		c-20.8-5.7-42-9.9-63.3-13.4c-16.6-2.7-33.2-4.4-49.9-6c-20.6-2-41.2-2.6-61.8-2.7c-2,0-2.3-0.6-2.1-2.6c0.9-9.2,1.5-18.5,0.3-27.7
		c-0.2-1.7,0.7-2.1,2-2.1c9.8,0.1,19.7-0.3,29.5,0.5c6.9,0.6,13.9,0.4,20.8,1.2c10.8,1.4,21.7,2.5,32.6,3.8
		c13.5,1.6,26.9,4.3,40.2,7.3c15.6,3.5,31.2,7.5,46.4,12.8c17.1,6,34.1,12.2,50.5,20c17.8,8.5,35.1,18.1,52,28.7
		c14.4,9.1,27.6,19.9,40.9,30.7c5.6,4.5,10.4,10.1,15.5,15.2C724.3,290.1,723.6,290.3,722.8,290.3z"/>
	<path class="st1" d="M579.8,82c15.8,0,31.7,0.1,47.5-0.1c3.2,0,4.5,1,4,4.3c0,0.3,0,0.6,0,0.9c0,7.5,0,7.2-7.2,8.3
		c-8,1.2-14.6,3.9-16.5,15c-1.1,6.4-1.2,12.8-1.2,19.2c-0.1,21.5-0.1,43.1,0,64.6c0,3.8-0.5,4.4-4.1,2.9
		c-14-6.2-28.4-11.2-42.9-15.8c-0.9-0.3-1.9-0.5-2.9-0.6c-3.4-0.6-4.9-2.2-4.8-6.3c0.2-17.9,0-35.9,0.1-53.9c0-4.1-0.6-8-1.3-12
		c-1.4-8.4-7-12.7-15.9-13.3c-2-0.1-5,1.3-5.7-1.3c-1-3.5-0.9-7.5,0-11.1c0.4-1.6,2.5-0.9,3.9-0.9C548.4,82,564.1,82,579.8,82z"/>
	<path class="st1" d="M456.4,301.2c-15.3,0-30.5-0.1-45.8,0.1c-4.1,0.1-5.9-0.7-5.6-5.6c0.4-6.7,0.1-7.1,6.4-7.9
		c15.4-1.9,17.5-9.1,18.3-23c0.9-15.4,0.4-30.8,0.2-46.2c-0.1-4.4,0.8-6,5.3-5.7c14.9,0.8,29.7,2.8,44.5,3.8
		c2.7,0.2,4.4,1.3,4.2,4.7c-0.7,15.2,0.7,30.5,0.6,45.7c0,4,1.1,7.7,2.3,11.3c1.4,4.5,5,6.7,9,8.1c1.5,0.5,3,0.7,4.6,1
		c7.4,1.3,7.2,1.3,7.4,9.2c0.1,3.8-1.3,4.4-4.5,4.4C487.8,301.1,472.1,301.2,456.4,301.2z"/>
	<path class="st3" d="M71.1,289.3c9.3-10.5,19.9-19.3,31.1-27.5c12.6-9.2,25.3-18.2,38.7-26.1c17.2-10.2,34.8-19.7,53.2-27.2
		c20.7-8.5,41.8-16.2,63.5-21.8c11.6-3,23.1-5.8,34.8-8.3c5.7-1.2,11.4-2,17.2-3c2.2-0.4,3.1,0.4,3.1,2.9c-0.1,8.4-0.1,16.8,0,25.1
		c0,2.2-0.6,3-2.9,3.3c-19.5,2.6-38.9,6-58.2,10.3c-28.1,6.3-55.5,14.7-82.5,24.8c-19.4,7.2-38,16.5-56.6,25.7
		c-13.5,6.7-26.3,14.5-38.8,23.1c-0.5,0.3-1.1,0.4-1.6,0.5C71.7,290.5,71.4,289.9,71.1,289.3z"/>
	<path class="st1" d="M455.5,82c15.5,0,31.1,0.1,46.6-0.1c3.1,0,4.6,0.8,4.1,4.2c0,0.3,0,0.6,0,0.9c-0.1,2.4,0.5,5.1-0.4,7.1
		c-1.2,2.4-4.1,0.8-6.3,1.3c-10.2,2.6-13.9,5.7-14.6,19.3c-0.8,15-1.5,30.1-0.9,45.2c0.1,3.2-0.3,4.3-3.9,3.8
		c-15.2-2.2-30.4-4-45.7-4.7c-3.3-0.1-4.6-1.6-4.5-5.3c0.2-11.4,0-22.7,0-34.1c0-4.5-0.9-9-2.1-13.2c-2.6-8.5-9.7-10.3-17-11.1
		c-6.6-0.8-6.6-0.5-6.6-7.5c0-5.9,0-5.9,5.5-5.9C425,82,440.2,82,455.5,82z"/>
	<path class="st1" d="M578.5,301.2c-16,0-31.9-0.1-47.9,0.1c-3.4,0-4.8-0.7-4.7-4.6c0.2-8.3,0-8.3,8-8.9c11.3-0.9,15.4-5.2,17-17.1
		c1.6-12.1,0.5-24.2,0.8-36.3c0.1-3.4,0.6-4.4,4-3.5c16.2,4.2,32.4,8.5,48.4,13.8c2.4,0.8,2.2,2.6,2.3,4.7
		c0.2,8.3-0.5,16.7,1.6,24.9c1.6,6.6,5.1,10.8,11.3,12.4c3,0.8,6.1,1.4,9.2,1.7c2,0.2,2.6,0.9,2.8,3c0.6,9.8,0.7,9.7-8.7,9.7
		C607.8,301.2,593.1,301.2,578.5,301.2z"/>
	<path class="st4" d="M71.1,289.3c0.3,0.6,0.6,1.2,0.9,1.8c-1.8,2.3-4.1,3.8-6.8,4.6c0,0-0.1-0.1-0.1-0.1
		C66.2,292.5,68.2,290.6,71.1,289.3z"/>
	<path class="st5" d="M722.8,290.3c0.8,0,1.5-0.3,1.9-1c2.7,1.3,4.9,3.2,5.9,6.4l0,0C727.7,294.3,725.1,292.6,722.8,290.3z"/>
	<path class="st4" d="M63.5,296.6c0.3-0.7,0.9-0.9,1.6-1c0,0,0.1,0.1,0.1,0.1C64.8,296.5,64.2,296.6,63.5,296.6L63.5,296.6z"/>
	<path class="st5" d="M730.6,295.7c0.7,0,1.3,0.2,1.7,0.9l0,0C731.6,296.6,730.9,296.5,730.6,295.7
		C730.5,295.7,730.6,295.7,730.6,295.7z"/>
	<path class="st4" d="M63.4,296.6c-0.1,0.1-0.2,0.3-0.3,0.4c0-0.1,0-0.2,0.1-0.2C63.2,296.7,63.4,296.6,63.4,296.6
		C63.5,296.6,63.4,296.6,63.4,296.6z"/>
	<path class="st5" d="M732.3,296.6c0.1,0.1,0.2,0.2,0.4,0.4c-0.1,0-0.2,0-0.2-0.1C732.3,296.8,732.3,296.7,732.3,296.6
		C732.3,296.6,732.3,296.6,732.3,296.6z"/>
</g>
</svg>
